<svg width="512" height="512" viewBox="0 0 512 512" fill="none" xmlns="http://www.w3.org/2000/svg">
<path d="M309.668 426.668C309.668 473.797 271.461 512 224.332 512C177.203 512 139 473.797 139 426.668C139 379.539 177.203 341.332 224.332 341.332C271.461 341.332 309.668 379.539 309.668 426.668V426.668Z" fill="#6873E5"/>
<path d="M373.836 254.316C301.516 243.988 245.668 181.801 245.668 106.668C245.668 85.332 250.23 65.0898 258.316 46.7188C247.395 44.1602 236.047 42.668 224.332 42.668C141.988 42.668 75 109.652 75 192V251.477C75 293.695 56.5039 333.547 24.0547 360.98C15.7578 368.062 11 378.41 11 389.332C11 409.922 27.7461 426.668 48.332 426.668H400.332C420.922 426.668 437.668 409.922 437.668 389.332C437.668 378.41 432.91 368.063 424.398 360.789C392.91 334.145 374.648 295.465 373.836 254.316V254.316Z" fill="#418BF8"/>
<path d="M501.668 106.668C501.668 165.578 453.91 213.332 395 213.332C336.09 213.332 288.332 165.578 288.332 106.668C288.332 47.7578 336.09 0 395 0C453.91 0 501.668 47.7578 501.668 106.668V106.668Z" fill="#3FD08F"/>
<g filter="url(#filter0_d)">
<path d="M395 37C401.452 37 407.661 37.8319 413.626 39.4957C419.591 41.1594 425.151 43.513 430.304 46.5565C435.499 49.6 440.226 53.2522 444.487 57.513C448.748 61.7739 452.4 66.5014 455.443 71.6957C458.487 76.8493 460.841 82.4087 462.504 88.3739C464.168 94.3391 465 100.548 465 107C465 113.452 464.168 119.661 462.504 125.626C460.841 131.591 458.487 137.171 455.443 142.365C452.4 147.519 448.748 152.226 444.487 156.487C440.226 160.748 435.499 164.4 430.304 167.443C425.151 170.487 419.591 172.841 413.626 174.504C407.661 176.168 401.452 177 395 177C388.548 177 382.339 176.168 376.374 174.504C370.409 172.841 364.829 170.487 359.635 167.443C354.481 164.4 349.774 160.748 345.513 156.487C341.252 152.226 337.6 147.519 334.557 142.365C331.513 137.171 329.159 131.591 327.496 125.626C325.832 119.661 325 113.452 325 107C325 100.548 325.832 94.3391 327.496 88.3739C329.159 82.4087 331.513 76.8493 334.557 71.6957C337.6 66.5014 341.252 61.7739 345.513 57.513C349.774 53.2522 354.481 49.6 359.635 46.5565C364.829 43.513 370.409 41.1594 376.374 39.4957C382.339 37.8319 388.548 37 395 37ZM395 168.235C400.641 168.235 406.058 167.504 411.252 166.043C416.487 164.583 421.377 162.513 425.922 159.835C430.467 157.197 434.586 154.032 438.278 150.339C442.012 146.606 445.197 142.467 447.835 137.922C450.513 133.377 452.583 128.507 454.043 123.313C455.504 118.078 456.235 112.641 456.235 107C456.235 101.359 455.504 95.942 454.043 90.7478C452.583 85.513 450.513 80.6232 447.835 76.0783C445.197 71.5333 442.012 67.4145 438.278 63.7217C434.586 59.9884 430.467 56.8029 425.922 54.1652C421.377 51.487 416.487 49.4174 411.252 47.9565C406.058 46.4957 400.641 45.7652 395 45.7652C389.359 45.7652 383.922 46.4957 378.687 47.9565C373.493 49.4174 368.623 51.487 364.078 54.1652C359.533 56.8029 355.394 59.9884 351.661 63.7217C347.968 67.4145 344.783 71.5333 342.104 76.0783C339.467 80.6232 337.417 85.513 335.957 90.7478C334.496 95.942 333.765 101.359 333.765 107C333.765 112.641 334.496 118.078 335.957 123.313C337.417 128.507 339.467 133.377 342.104 137.922C344.783 142.467 347.968 146.606 351.661 150.339C355.394 154.032 359.533 157.197 364.078 159.835C368.623 162.513 373.493 164.583 378.687 166.043C383.922 167.504 389.359 168.235 395 168.235ZM395 155.148C390.171 155.148 385.626 154.214 381.365 152.348C377.145 150.522 373.452 148.026 370.287 144.861C367.122 141.696 364.606 138.003 362.739 133.783C360.913 129.522 360 124.977 360 120.148H430C430 124.977 429.067 129.522 427.2 133.783C425.374 138.003 422.878 141.696 419.713 144.861C416.548 148.026 412.835 150.522 408.574 152.348C404.354 154.214 399.829 155.148 395 155.148ZM395 150.765C397.232 150.765 399.443 150.522 401.635 150.035C403.826 149.548 405.936 148.817 407.965 147.843C406.301 145.936 404.354 144.496 402.122 143.522C399.89 142.507 397.516 142 395 142C392.484 142 390.11 142.507 387.878 143.522C385.646 144.496 383.699 145.936 382.035 147.843C384.064 148.817 386.174 149.548 388.365 150.035C390.557 150.522 392.768 150.765 395 150.765ZM422.635 133.235C424.014 130.435 424.907 127.533 425.313 124.53H364.687C365.133 127.655 366.006 130.557 367.304 133.235H422.635ZM370.957 107C370.023 107 369.151 106.838 368.339 106.513C367.568 106.148 366.878 105.681 366.27 105.113C365.701 104.504 365.235 103.814 364.87 103.043C364.545 102.232 364.383 101.359 364.383 100.426V82.9565C364.383 82.0638 364.545 81.2116 364.87 80.4C365.235 79.5884 365.701 78.8985 366.27 78.3304C366.878 77.7217 367.568 77.2551 368.339 76.9304C369.151 76.5652 370.023 76.3826 370.957 76.3826C371.849 76.3826 372.701 76.5652 373.513 76.9304C374.325 77.2551 375.014 77.7217 375.583 78.3304C376.151 78.9391 376.597 79.6493 376.922 80.4609C377.287 81.2319 377.47 82.0638 377.47 82.9565V100.426C377.47 101.319 377.287 102.171 376.922 102.983C376.597 103.754 376.151 104.443 375.583 105.052C375.014 105.661 374.325 106.148 373.513 106.513C372.701 106.838 371.849 107 370.957 107ZM419.043 107C418.151 107 417.299 106.838 416.487 106.513C415.716 106.148 415.026 105.661 414.417 105.052C413.809 104.443 413.322 103.754 412.957 102.983C412.632 102.171 412.47 101.319 412.47 100.426V82.9565C412.47 82.0638 412.632 81.2319 412.957 80.4609C413.322 79.6493 413.809 78.9391 414.417 78.3304C415.026 77.7217 415.716 77.2551 416.487 76.9304C417.299 76.5652 418.151 76.3826 419.043 76.3826C419.936 76.3826 420.788 76.5652 421.6 76.9304C422.412 77.2551 423.101 77.7217 423.67 78.3304C424.278 78.8985 424.745 79.5884 425.07 80.4C425.435 81.2116 425.617 82.0638 425.617 82.9565V100.426C425.617 101.359 425.435 102.232 425.07 103.043C424.745 103.814 424.278 104.504 423.67 105.113C423.101 105.681 422.412 106.148 421.6 106.513C420.788 106.838 419.936 107 419.043 107Z" fill="#006337"/>
</g>
<defs>
<filter id="filter0_d" x="321" y="37" width="148" height="148" filterUnits="userSpaceOnUse" color-interpolation-filters="sRGB">
<feFlood flood-opacity="0" result="BackgroundImageFix"/>
<feColorMatrix in="SourceAlpha" type="matrix" values="0 0 0 0 0 0 0 0 0 0 0 0 0 0 0 0 0 0 127 0"/>
<feOffset dy="4"/>
<feGaussianBlur stdDeviation="2"/>
<feColorMatrix type="matrix" values="0 0 0 0 0 0 0 0 0 0 0 0 0 0 0 0 0 0 0.25 0"/>
<feBlend mode="normal" in2="BackgroundImageFix" result="effect1_dropShadow"/>
<feBlend mode="normal" in="SourceGraphic" in2="effect1_dropShadow" result="shape"/>
</filter>
</defs>
</svg>
